<?xml version="1.0" encoding="UTF-8"?>
<svg width="27px" height="32px" viewBox="0 0 27 32" version="1.1" xmlns="http://www.w3.org/2000/svg" xmlns:xlink="http://www.w3.org/1999/xlink">
    <!-- Generator: Sketch 47 (45396) - http://www.bohemiancoding.com/sketch -->
    <title>android</title>
    <desc>Created with Sketch.</desc>
    <defs></defs>
    <g id="Thinkup-Website" stroke="none" stroke-width="1" fill="none" fill-rule="evenodd">
        <g id="Services---Desktop-HD-" transform="translate(-857.000000, -1720.000000)" fill-rule="nonzero" fill="#FFFFFF">
            <g id="Section4---Serv" transform="translate(0.000000, 1600.000000)">
                <g id="servicesx4" transform="translate(135.000000, 100.000000)">
                    <g id="Android" transform="translate(700.000000, 0.000000)">
                        <g id="service">
                            <g id="Bullet">
                                <g transform="translate(1.000000, 0.000000)">
                                    <g id="icn-services-android" transform="translate(0.000000, 3.000000)">
                                        <g id="android" transform="translate(21.000000, 17.000000)">
                                            <path d="M5.7,23.75 C5.7,24.4604167 6.285,25.0416667 7,25.0416667 L8.3,25.0416667 L8.3,29.5625 C8.3,30.6345833 9.171,31.5 10.25,31.5 C11.329,31.5 12.2,30.6345833 12.2,29.5625 L12.2,25.0416667 L14.8,25.0416667 L14.8,29.5625 C14.8,30.6345833 15.671,31.5 16.75,31.5 C17.829,31.5 18.7,30.6345833 18.7,29.5625 L18.7,25.0416667 L20,25.0416667 C20.715,25.0416667 21.3,24.4604167 21.3,23.75 L21.3,10.8333333 L5.7,10.8333333 L5.7,23.75 Z M2.45,10.8333333 C1.371,10.8333333 0.5,11.69875 0.5,12.7708333 L0.5,21.8125 C0.5,22.8845833 1.371,23.75 2.45,23.75 C3.529,23.75 4.4,22.8845833 4.4,21.8125 L4.4,12.7708333 C4.4,11.69875 3.529,10.8333333 2.45,10.8333333 Z M24.55,10.8333333 C23.471,10.8333333 22.6,11.69875 22.6,12.7708333 L22.6,21.8125 C22.6,22.8845833 23.471,23.75 24.55,23.75 C25.629,23.75 26.5,22.8845833 26.5,21.8125 L26.5,12.7708333 C26.5,11.69875 25.629,10.8333333 24.55,10.8333333 Z M18.089,3.29 L19.779,1.61083333 C20.039,1.3525 20.039,0.952083333 19.779,0.69375 C19.519,0.435416667 19.116,0.435416667 18.856,0.69375 L16.932,2.60541667 C15.905,2.08875 14.735,1.79166667 13.5,1.79166667 C12.252,1.79166667 11.082,2.08875 10.042,2.60541667 L8.105,0.69375 C7.845,0.435416667 7.442,0.435416667 7.182,0.69375 C6.922,0.952083333 6.922,1.3525 7.182,1.61083333 L8.885,3.30291667 C6.961,4.71083333 5.7,6.97125 5.7,9.54166667 L21.3,9.54166667 C21.3,6.97125 20.039,4.69791667 18.089,3.29 L18.089,3.29 Z M10.9,6.95833333 L9.6,6.95833333 L9.6,5.66666667 L10.9,5.66666667 L10.9,6.95833333 Z M17.4,6.95833333 L16.1,6.95833333 L16.1,5.66666667 L17.4,5.66666667 L17.4,6.95833333 Z" id="Shape"></path>
                                        </g>
                                    </g>
                                </g>
                            </g>
                        </g>
                    </g>
                </g>
            </g>
        </g>
    </g>
</svg>