<?xml version="1.0" encoding="UTF-8"?>
<svg width="56px" height="51px" viewBox="0 0 56 51" version="1.1" xmlns="http://www.w3.org/2000/svg" xmlns:xlink="http://www.w3.org/1999/xlink">
    <!-- Generator: Sketch 47 (45396) - http://www.bohemiancoding.com/sketch -->
    <title>features-design</title>
    <desc>Created with Sketch.</desc>
    <defs></defs>
    <g id="Thinkup-Website" stroke="none" stroke-width="1" fill="none" fill-rule="evenodd">
        <g id="Home---Desktop-HD" transform="translate(-152.000000, -838.000000)" fill="#3EFFDE">
            <g id="Section1---Hero">
                <g id="Services-Cards" transform="translate(0.000000, 763.000000)">
                    <g id="services">
                        <g id="bullet" transform="translate(142.000000, 75.000000)">
                            <g id="features-design" transform="translate(10.000000, 0.000000)">
                                <g id="icn-features-design">
                                    <path d="M28.1931097,18.3839271 C25.7567474,18.3839271 23.4195028,17.4183148 21.6960629,15.6949354 C19.9702659,13.9714955 19.0023571,11.6342509 19,9.19788861 C19,6.76152627 19.9656122,4.42428168 21.6866346,2.6984243 C23.4077174,0.972627354 25.7449016,0.00236140612 28.1812639,4.33797384e-06 C30.6176262,-0.00235877393 32.9572279,0.960842013 34.6831457,2.68192482 C36.4089427,4.40300763 37.3815657,6.73783472 37.3863403,9.17413661 C37.3887034,11.6152735 36.4230851,13.9572322 34.6973486,15.6850841 C32.9739087,17.410881 30.634307,18.383504 28.1930493,18.383504 L28.1931097,18.3839271 Z M28.1931097,2.42234514 C25.4497846,2.42234514 22.9780058,4.07730916 21.9323741,6.6104926 C20.8841436,9.14603311 21.4696514,12.061666 23.4102558,13.9977859 C25.3532052,15.9336641 28.2712556,16.5073382 30.8017798,15.4520365 C33.3326061,14.3943777 34.9781419,11.9178244 34.9686532,9.17437836 C34.9521295,5.44422737 31.9231398,2.42711971 28.1929888,2.4222847 L28.1931097,2.42234514 Z" id="Fill-1"></path>
                                    <path d="M9.20042265,50.3865369 C6.75928574,50.3865369 4.41968408,49.4185676 2.69370582,47.6928329 C0.96790888,45.969393 0,43.6274343 0,41.1885336 C0.0023606944,38.7497537 0.972683453,36.4102125 2.70083747,34.6866518 C4.42663441,32.9632119 6.76859314,31.995303 9.20755429,32.0000171 C11.6465154,32.0047313 13.9858754,32.9774147 15.7070186,34.7055687 C17.4281014,36.4337228 18.3936532,38.7780386 18.386582,41.2165162 C18.3771356,43.6481644 17.4068274,45.9783378 15.6857445,47.6972448 C13.9646617,49.4161495 11.6321917,50.38152 9.20078528,50.3862341 L9.20042265,50.3865369 Z M9.20042265,34.4249568 C6.45945459,34.4225936 3.99003286,36.0681354 2.93726953,38.5989014 C1.88668195,41.1273707 2.46038025,44.0406465 4.39393764,45.9813597 C6.32745877,47.921952 9.23837749,48.5074719 11.7715609,47.4639555 C14.3047444,46.4204392 15.9620655,43.9557316 15.9691367,41.2171206 C15.9714998,39.4181336 15.2608679,37.6923971 13.9907708,36.4175255 C12.7206133,35.1450109 10.9972338,34.4273138 9.20060396,34.4249568 L9.20042265,34.4249568 Z" id="Fill-2"></path>
                                    <path d="M46.2051368,50.3865845 C43.7663569,50.3889452 41.4243982,49.4209723 39.69842,47.6975946 C37.9702659,45.9717977 37,43.632196 37,41.1932953 C37,38.7521584 37.9703264,36.4125567 39.69842,34.688996 C41.4242169,32.963199 43.7661756,31.9976472 46.2051368,32.0000043 C48.6462737,32.0023614 50.9858754,32.9774019 52.7070186,34.7055559 C54.4281014,36.4337099 55.3936532,38.7756687 55.386582,41.2165034 C55.3794987,43.6481516 54.4091844,45.9759679 52.6881621,47.6948145 C50.9671397,49.4136587 48.6369663,50.3790896 46.2050159,50.3861614 L46.2051368,50.3865845 Z M46.2051368,34.4250044 C43.4665862,34.4179211 40.9923899,36.0657655 39.9395662,38.5942348 C38.8866215,41.1227041 39.4603138,44.038337 41.3938168,45.9791106 C43.3249808,47.919703 46.2382566,48.5075799 48.7714401,47.4640636 C51.3046235,46.4229043 52.9619446,43.9558396 52.9690158,41.2172286 C52.9760991,37.4752923 49.9494906,34.4343118 46.205439,34.4252461 L46.2051368,34.4250044 Z" id="Fill-3"></path>
                                    <polygon id="Fill-4" points="16 43.4175058 37.7575521 43.4175058 37.7575521 41 16 41"></polygon>
                                    <polygon id="Fill-5" points="30 17.2063958 32.0940435 16 42.8664493 34.7024291 40.7724058 35.908825"></polygon>
                                    <polygon id="Fill-6" points="12 34.6981985 22.7651533 16 24.8591968 17.2063958 14.0940435 35.9045943"></polygon>
                                </g>
                            </g>
                        </g>
                    </g>
                </g>
            </g>
        </g>
    </g>
</svg>