<svg xmlns="http://www.w3.org/2000/svg" width="69" height="69" viewBox="0 0 69 69">
    <path fill="#FFF" fill-rule="evenodd" d="M61.21 53.42a7.74 7.74 0 0 0-4.656 1.56l-10.29-10.29c2.369-2.739 3.817-6.295 3.817-10.19 0-3.895-1.448-7.451-3.822-10.186l10.29-10.29a7.788 7.788 0 0 0 4.66 1.557c4.296 0 7.791-3.496 7.791-7.79C69 3.494 65.505 0 61.21 0s-7.79 3.495-7.79 7.79a7.74 7.74 0 0 0 1.56 4.656l-10.29 10.29c-2.739-2.369-6.295-3.817-10.19-3.817-3.895 0-7.451 1.448-10.186 3.822l-10.29-10.29a7.788 7.788 0 0 0 1.557-4.66C15.58 3.494 12.085 0 7.79 0 3.494 0 0 3.495 0 7.79s3.495 7.79 7.79 7.79a7.74 7.74 0 0 0 4.656-1.56l10.29 10.29c-2.369 2.739-3.817 6.295-3.817 10.19 0 3.895 1.448 7.451 3.822 10.186l-10.29 10.29a7.788 7.788 0 0 0-4.66-1.557C3.494 53.42 0 56.915 0 61.21 0 65.506 3.495 69 7.79 69s7.79-3.495 7.79-7.79a7.74 7.74 0 0 0-1.56-4.656l10.29-10.29c2.739 2.369 6.295 3.817 10.19 3.817 3.895 0 7.451-1.448 10.186-3.822l10.29 10.29a7.788 7.788 0 0 0-1.557 4.66c0 4.296 3.496 7.791 7.79 7.791C65.506 69 69 65.505 69 61.21s-3.495-7.79-7.79-7.79zM61.5 2C64.534 2 67 4.466 67 7.5S64.534 13 61.5 13A5.505 5.505 0 0 1 56 7.5C56 4.466 58.466 2 61.5 2zM2 7.5C2 4.466 4.466 2 7.5 2S13 4.466 13 7.5 10.534 13 7.5 13A5.505 5.505 0 0 1 2 7.5zM34.5 21C41.944 21 48 27.082 48 34.559c0 3.668-1.463 6.996-3.828 9.441a10.097 10.097 0 0 0-5.585-6.316 6.787 6.787 0 0 0 2.663-5.385c0-3.738-3.028-6.78-6.75-6.78s-6.75 3.042-6.75 6.78a6.787 6.787 0 0 0 2.663 5.385A10.063 10.063 0 0 0 24.828 44 13.545 13.545 0 0 1 21 34.559C21 27.082 27.056 21 34.5 21zM30 32.5c0-2.483 2.017-4.5 4.5-4.5s4.5 2.017 4.5 4.5-2.017 4.5-4.5 4.5a4.503 4.503 0 0 1-4.5-4.5zM7.5 67A5.505 5.505 0 0 1 2 61.5C2 58.466 4.466 56 7.5 56s5.5 2.466 5.5 5.5S10.534 67 7.5 67zM27 45.53c.629-3.788 3.77-6.53 7.5-6.53 3.727 0 6.871 2.742 7.5 6.53-2.125 1.552-4.708 2.47-7.5 2.47s-5.375-.918-7.5-2.47zM61.5 67a5.505 5.505 0 0 1-5.5-5.5c0-3.034 2.466-5.5 5.5-5.5s5.5 2.466 5.5 5.5-2.466 5.5-5.5 5.5z"/>
</svg>
