<svg xmlns="http://www.w3.org/2000/svg" width="63" height="70" viewBox="0 0 63 70">
    <g fill="#FFF" fill-rule="evenodd">
        <path d="M47.881 66.41c0 .816-.665 1.48-1.483 1.48H15.602a1.483 1.483 0 0 1-1.483-1.48V58.8h29.925v-2.113l-29.925-.003V3.592c0-.816.665-1.48 1.483-1.48h30.796c.818 0 1.483.664 1.483 1.48v5.335l-29.792.004v2.113H47.88v5.421H50V3.592A3.6 3.6 0 0 0 46.398 0H15.602A3.6 3.6 0 0 0 12 3.592v62.816A3.6 3.6 0 0 0 15.602 70h30.796A3.6 3.6 0 0 0 50 66.408V55.452h-2.119V66.41z"/>
        <path d="M28 7h5V5h-5zM28 63.5c0 1.93 1.57 3.5 3.5 3.5s3.5-1.57 3.5-3.5-1.57-3.5-3.5-3.5-3.5 1.57-3.5 3.5zm4.857 0a1.36 1.36 0 0 1-1.357 1.356 1.36 1.36 0 0 1-1.356-1.356 1.357 1.357 0 0 1 2.713 0zM4 54h2v-3H4zM4 61h2v-3H4zM7 57h3v-2H7zM0 57h3v-2H0zM57 12h2V9h-2zM57 19h2v-3h-2zM60 15h3v-2h-3zM53 15h3v-2h-3zM50.303 32.967a7.047 7.047 0 0 0-.274-.387v-7.616c1.525-.1 2.74-1.4 2.74-2.979 0-1.646-1.313-2.985-2.927-2.985h-6.769c-1.613 0-2.926 1.339-2.926 2.985 0 1.583 1.211 2.882 2.74 2.979v8.067l-7.162 10.728H17V54h39.987c1.741 0 3.04-.648 3.656-1.82.619-1.172.429-2.634-.534-4.114l-9.806-15.099zm-5.59 1.122l.265-.364V22.833H43.07a.841.841 0 0 1-.831-.848c0-.467.373-.848.831-.848h6.769c.458 0 .831.38.831.848a.841.841 0 0 1-.831.848h-1.905l-.003 10.549.268.304c.121.14.242.29.357.46l4.088 6.295-12.169.003 4.238-6.355zM19.095 45.896H34.3l-1.277 1.913h-6.804v2.137h5.796c-.15.678-.117 1.326.108 1.914l-13.026.003v-5.967zm39.702 5.272c-.229.434-.906.695-1.813.695H35.896c-.903 0-1.574-.254-1.794-.678-.219-.424-.049-1.132.462-1.893l4.48-6.715h14.988l4.33 6.668c.501.771.665 1.49.436 1.923z"/>
        <path d="M29.5 41c2.481 0 4.5-2.019 4.5-4.5S31.981 32 29.5 32a4.505 4.505 0 0 0-4.5 4.5 4.501 4.501 0 0 0 4.5 4.5zm0-6.946a2.45 2.45 0 0 1 2.446 2.446 2.45 2.45 0 0 1-2.446 2.446 2.445 2.445 0 1 1 0-4.892zM40 27c0-2.205-1.795-4-4-4s-4 1.795-4 4 1.795 4 4 4 4-1.795 4-4zm-5.9 0c0-1.047.853-1.9 1.9-1.9s1.9.853 1.9 1.9-.853 1.9-1.9 1.9-1.9-.853-1.9-1.9zM30 22c1.654 0 3-1.348 3-3 0-1.656-1.346-3-3-3s-3 1.348-3 3 1.346 3 3 3zm0-3.95a.95.95 0 0 1 .949.947.948.948 0 0 1-1.898 0A.95.95 0 0 1 30 18.05zM22 50h3v-2h-3zM41 48h12v-2H41z"/>
    </g>
</svg>
