<?xml version="1.0" encoding="UTF-8"?>
<svg width="25px" height="30px" viewBox="0 0 25 30" version="1.1" xmlns="http://www.w3.org/2000/svg" xmlns:xlink="http://www.w3.org/1999/xlink">
    <!-- Generator: Sketch 47 (45396) - http://www.bohemiancoding.com/sketch -->
    <title>ios</title>
    <desc>Created with Sketch.</desc>
    <defs></defs>
    <g id="Thinkup-Website" stroke="none" stroke-width="1" fill="none" fill-rule="evenodd">
        <g id="Services---Desktop-HD-" transform="translate(-158.000000, -1721.000000)" fill-rule="nonzero" fill="#FFFFFF">
            <g id="Section4---Serv" transform="translate(0.000000, 1600.000000)">
                <g id="servicesx4" transform="translate(135.000000, 100.000000)">
                    <g id="iOS">
                        <g id="service">
                            <g id="Bullet">
                                <g transform="translate(1.000000, 0.000000)">
                                    <g id="icn-services-ios" transform="translate(0.000000, 3.000000)">
                                        <g id="ios" transform="translate(22.000000, 18.000000)">
                                            <path d="M20.5444501,15.9072304 C20.5858153,20.2954702 24.4571574,21.7554658 24.5,21.7742222 C24.4674987,21.8777573 23.8817376,23.8554287 22.4612852,25.8991225 C21.232147,27.665222 19.9572116,29.4253195 17.9487821,29.462082 C15.9750698,29.4980943 15.3412954,28.3111913 13.0839359,28.3111913 C10.8280537,28.3111913 10.1226288,29.4253195 8.25454557,29.4980943 C6.3162892,29.5701187 4.83969831,27.5871955 3.60095748,25.827098 C1.06955329,22.2258755 -0.865009763,15.6536443 1.73287426,11.2166381 C3.02332162,9.01314004 5.32869439,7.6176663 7.83202932,7.58240433 C9.73556845,7.5463921 11.5327398,8.84208196 12.6968755,8.84208196 C13.8595339,8.84208196 16.0437656,7.28380296 18.3402744,7.51263064 C19.3005386,7.55239414 21.9981424,7.89451028 23.7303113,10.3891071 C23.589965,10.4746362 20.5104715,12.238485 20.5444501,15.9072304 L20.5444501,15.9072304 Z M18.3683437,0.5 C16.8843662,0.558519866 15.0901494,1.47233009 14.0264721,2.697496 C13.0721172,3.78236429 12.237426,5.51845366 12.4627188,7.18326883 C14.1173279,7.30931162 15.8059156,6.35648816 16.8356143,5.12982173 C17.8638356,3.90465581 18.5574419,2.19857663 18.3683437,0.5 Z" id="Shape"></path>
                                        </g>
                                    </g>
                                </g>
                            </g>
                        </g>
                    </g>
                </g>
            </g>
        </g>
    </g>
</svg>