<?xml version="1.0" encoding="UTF-8"?>
<svg width="25px" height="26px" viewBox="0 0 25 26" version="1.1" xmlns="http://www.w3.org/2000/svg" xmlns:xlink="http://www.w3.org/1999/xlink">
    <!-- Generator: Sketch 47 (45396) - http://www.bohemiancoding.com/sketch -->
    <title>uxui</title>
    <desc>Created with Sketch.</desc>
    <defs></defs>
    <g id="Thinkup-Website" stroke="none" stroke-width="1" fill="none" fill-rule="evenodd">
        <g id="Services---Desktop-HD-" transform="translate(-158.000000, -2017.000000)" fill-rule="nonzero" fill="#FFFFFF">
            <g id="Section4---Serv" transform="translate(0.000000, 1600.000000)">
                <g id="servicesx4" transform="translate(135.000000, 100.000000)">
                    <g id="UXUI" transform="translate(0.000000, 294.000000)">
                        <g id="service">
                            <g id="Bullet">
                                <g transform="translate(1.000000, 0.000000)">
                                    <g id="icn-services-ux" transform="translate(0.000000, 3.000000)">
                                        <g id="uxui" transform="translate(22.000000, 20.000000)">
                                            <path d="M5.31774958,11.7296346 L0.264923169,6.67941137 C0.0953056878,6.50997903 0,6.28006831 0,6.04032385 C0,5.80057939 0.0953056878,5.57066867 0.264923169,5.40123633 L4.90123633,0.764923169 C5.07066867,0.595305688 5.30057939,0.5 5.54032385,0.5 C5.78006831,0.5 6.00997903,0.595305688 6.17941137,0.764923169 L11.2296346,5.81514637 C11.270651,5.85573049 11.2937306,5.9110345 11.2937306,5.96873563 C11.2937306,6.02643677 11.270651,6.08174078 11.2296346,6.1223249 L10.2586381,7.09332142 C10.1743732,7.17704366 10.0383275,7.17704366 9.95406274,7.09332142 L9.45424683,6.59350551 L8.54312409,7.50723147 C8.44705216,7.60357272 8.31331321,7.65252905 8.17774739,7.64098085 C8.04218156,7.62943265 7.91865021,7.5585607 7.84025797,7.44735769 C7.71295806,7.2545567 7.74142417,6.99836169 7.90794138,6.83820705 L8.79823846,5.94790997 L8.1474365,5.29710801 L7.23891696,6.20562755 C7.14284503,6.3019688 7.00910608,6.35092513 6.87354026,6.33937693 C6.73797443,6.32782873 6.61444308,6.25695679 6.53605085,6.14575377 C6.40875093,5.95295278 6.43721704,5.69675777 6.60373425,5.53660313 L7.49403133,4.64630605 L6.84322937,3.99550409 L5.93470984,4.90402363 C5.83863791,5.00036489 5.70489896,5.04932122 5.56933313,5.03777302 C5.43376731,5.02622482 5.31023595,4.95535287 5.23184372,4.84414985 C5.10454381,4.65134886 5.13300992,4.39515385 5.29952712,4.23499922 L6.1898242,3.34470214 L5.53902225,2.69390018 L2.18609055,6.03902225 L6.59592463,10.4514595 C6.6369411,10.4920436 6.66002061,10.5473477 6.66002061,10.6050488 C6.66002061,10.6627499 6.6369411,10.7180539 6.59592463,10.7586381 L5.6249281,11.7296346 C5.58434399,11.770651 5.52903998,11.7937306 5.47133884,11.7937306 C5.4136377,11.7937306 5.35833369,11.770651 5.31774958,11.7296346 Z M19.6796472,14.2729686 C19.6390631,14.2319522 19.5837591,14.2088727 19.526058,14.2088727 C19.4683568,14.2088727 19.4130528,14.2319522 19.3724687,14.2729686 L18.4014722,15.2439652 C18.3604557,15.2845493 18.3373762,15.3398533 18.3373762,15.3975544 C18.3373762,15.4552556 18.3604557,15.5105596 18.4014722,15.5511437 L18.9012881,16.0509596 L18.010991,16.9412567 C17.8444738,17.1014113 17.8160077,17.3576063 17.9433076,17.5504073 C18.0216998,17.6616103 18.1452312,17.7324823 18.280797,17.7440305 C18.4163628,17.7555787 18.5501018,17.7066223 18.6461737,17.6102811 L19.5546932,16.7017615 L20.2054952,17.3525635 L19.3151981,18.2428606 C19.1486809,18.4030152 19.1202148,18.6592102 19.2475147,18.8520112 C19.3259069,18.9632142 19.4494383,19.0340862 19.5850041,19.0456344 C19.7205699,19.0571826 19.8543089,19.0082263 19.9503808,18.911885 L20.8589004,18.0033655 L21.5097023,18.6541674 L20.6194052,19.5444645 C20.452888,19.7046191 20.4244219,19.9608141 20.5517218,20.1536151 C20.6301141,20.2648182 20.7536454,20.3356901 20.8892112,20.3472383 C21.0247771,20.3587865 21.158516,20.3098302 21.254588,20.2134889 L22.1631075,19.3049694 L22.8139094,19.9557713 L19.4609778,23.3139094 L15.0485405,18.9040754 C15.0079564,18.8630589 14.9526523,18.8399794 14.8949512,18.8399794 C14.8372501,18.8399794 14.7819461,18.8630589 14.7413619,18.9040754 L13.7703654,19.8750719 C13.729349,19.915656 13.7062694,19.97096 13.7062694,20.0286612 C13.7062694,20.0863623 13.729349,20.1416663 13.7703654,20.1822504 L18.8205886,25.2350768 C18.990021,25.4046943 19.2199317,25.5 19.4596762,25.5 C19.6994206,25.5 19.9293313,25.4046943 20.0987637,25.2350768 L24.7350768,20.5987637 C24.9046943,20.4293313 25,20.1994206 25,19.9596762 C25,19.7199317 24.9046943,19.490021 24.7350768,19.3205886 L19.6796472,14.2729686 Z M24.3133572,6.77833327 L8.12144756,22.9702429 C7.8194775,23.2719395 7.44602289,23.4922508 7.0359099,23.610632 L1.69933383,25.1439214 C1.32065755,25.2524311 0.912925197,25.1467596 0.634621827,24.8679814 C0.355843577,24.589678 0.250172112,24.1819457 0.358681796,23.8032694 L1.89197121,18.4640901 C2.01035237,18.0539771 2.23066373,17.6805225 2.53236034,17.3785524 L18.7242699,1.18403963 C19.5895268,0.327784449 20.9828625,0.327784449 21.8481193,1.18403963 L24.3159604,3.62845179 C24.7351699,4.04482012 24.9709197,4.61124474 24.9709197,5.20209093 C24.9709197,5.79293711 23.8423128,7.25221888 23.4231032,7.66858721 L24.3133572,6.77833327 Z M19.4844498,3.76637866 C19.1968588,3.58400433 18.8207431,3.62857295 18.5837399,3.87311018 L3.78450331,18.6801564 C3.66963982,18.7963491 3.59956148,18.9494149 3.58665951,19.1122889 L2.87338057,21.5983523 L3.9146637,22.6396355 L6.55171324,21.882102 C6.66204379,21.8467925 6.7621141,21.785142 6.84327252,21.7024807 L7.23115048,21.3146027 L7.21553124,21.2989834 C6.6151444,20.9386013 6.06463977,20.5009983 5.57811351,19.9973795 C5.43754029,19.8568063 5.30477669,19.7136299 5.1772195,19.5730566 C5.09521466,19.4850738 5.09521466,19.3486546 5.1772195,19.2606717 L19.5937845,4.85191633 C19.7418371,4.7032081 19.8153976,4.495943 19.794218,4.28717251 C19.7730384,4.07840201 19.6593512,3.89013306 19.4844498,3.77418828 L19.4844498,3.76637866 Z" id="Shape"></path>
                                        </g>
                                    </g>
                                </g>
                            </g>
                        </g>
                    </g>
                </g>
            </g>
        </g>
    </g>
</svg>