<?xml version="1.0" encoding="UTF-8"?><!DOCTYPE svg PUBLIC "-//W3C//DTD SVG 1.1//EN" "http://www.w3.org/Graphics/SVG/1.1/DTD/svg11.dtd"><svg xmlns="http://www.w3.org/2000/svg"><symbol id="icon-facebook" viewBox="0 0 10 19">
    <title>
        facebook
    </title>
    <path d="M9.766.157v2.946H8.014c-.64 0-1.071.134-1.295.402-.223.268-.335.67-.335 1.205v2.11h3.27l-.435 3.303H6.384v8.471H2.97v-8.47H.123V6.82H2.97V4.387c0-1.384.387-2.457 1.161-3.22C4.904.404 5.934.023 7.222.023c1.093 0 1.941.045 2.544.134z" fill-rule="evenodd"/>
</symbol><symbol id="icon-logo" viewBox="0 0 144 28">
    <g fill-rule="evenodd">
        <path fill="currentColor" d="M0 11.91V4h4.205v3.94H9.84v3.97H4.205v6.085c0 .983.212 1.7.636 2.153.425.453.987.68 1.688.68.847 0 1.825-.364 2.934-1.09L11 23.24C9.378 24.413 7.658 25 5.837 25c-1.925 0-3.38-.567-4.362-1.7C.492 22.164 0 20.513 0 18.346V11.91zM19 24V3h4.567v5.98c1.09-1.49 2.703-2.234 4.84-2.234 1.935 0 3.518.607 4.748 1.82C34.385 9.78 35 11.356 35 13.3V24h-4.567v-9.27c0-1.21-.29-2.14-.87-2.792-.578-.65-1.39-.976-2.435-.976-1.034 0-1.886.328-2.556.985-.67.656-1.005 1.595-1.005 2.818V24H19zM42.718 4.284C42.24 3.806 42 3.216 42 2.514c0-.7.24-1.296.718-1.783.48-.486 1.07-.73 1.775-.73.703 0 1.297.244 1.78.73S47 1.814 47 2.516c0 .7-.242 1.29-.726 1.77-.484.476-1.078.715-1.78.715-.705 0-1.297-.24-1.776-.716"/>
        <path fill="currentColor" d="M43 24h4V8h-4zm13 0V7.45h4.43v1.92C61.532 7.79 63.19 7 65.406 7c1.936 0 3.52.598 4.75 1.793C71.385 9.99 72 11.543 72 13.456V24h-4.567v-9.133c0-1.193-.29-2.11-.87-2.75s-1.39-.963-2.435-.963c-1.034 0-1.886.323-2.556.97-.67.647-1.005 1.572-1.005 2.777V24H56zm24 0V3h4.41v10.154h1.55l4.59-5.992h5.4l-6.436 7.927L96 24h-5.416l-4.69-6.806H84.41V24z"/>
        <path d="M103 12.502V3h4.557v9.118c0 1.27.31 2.207.933 2.814.622.607 1.458.91 2.51.91 1.04 0 1.874-.303 2.502-.91.627-.607.94-1.545.94-2.814V3H119v9.502c0 1.27-.217 2.394-.65 3.373-.432.98-1.024 1.762-1.776 2.347a8.133 8.133 0 0 1-2.536 1.327A9.91 9.91 0 0 1 111 20c-1.086 0-2.1-.15-3.043-.45a8.08 8.08 0 0 1-2.538-1.328c-.75-.585-1.34-1.367-1.773-2.347-.43-.98-.647-2.104-.647-3.373"/>
        <path fill="currentColor" d="M132.325 12.505c-.774.867-1.162 1.97-1.162 3.31s.388 2.446 1.162 3.318c.775.872 1.778 1.308 3.01 1.308 1.266 0 2.28-.44 3.044-1.324.763-.884 1.145-1.984 1.145-3.3 0-1.32-.382-2.416-1.146-3.294-.764-.878-1.78-1.317-3.044-1.317-1.233 0-2.236.433-3.01 1.3zM127 28V7.456h4.295v1.84c1.19-1.53 2.803-2.296 4.843-2.296 2.24 0 4.11.842 5.61 2.524 1.5 1.684 2.252 3.78 2.252 6.29 0 2.51-.75 4.61-2.25 6.3-1.5 1.688-3.366 2.532-5.596 2.532-1.985 0-3.572-.726-4.76-2.178V28H127z"/>
    </g>
</symbol></svg>