<?xml version="1.0" encoding="UTF-8"?><!DOCTYPE svg PUBLIC "-//W3C//DTD SVG 1.1//EN" "http://www.w3.org/Graphics/SVG/1.1/DTD/svg11.dtd"><svg xmlns="http://www.w3.org/2000/svg"><symbol id="icon-arrow-right" viewBox="0 0 408 408">
    <path d="M204 0l-35.7 35.7 142.8 142.8H0v51h311.1L168.3 372.3 204 408l204-204z"/>
</symbol><symbol id="icon-facebook" viewBox="0 0 10 19">
    <title>
        facebook
    </title>
    <path d="M9.766.157v2.946H8.014c-.64 0-1.071.134-1.295.402-.223.268-.335.67-.335 1.205v2.11h3.27l-.435 3.303H6.384v8.471H2.97v-8.47H.123V6.82H2.97V4.387c0-1.384.387-2.457 1.161-3.22C4.904.404 5.934.023 7.222.023c1.093 0 1.941.045 2.544.134z" fill-rule="evenodd"/>
</symbol><symbol id="icon-home-agency" viewBox="0 0 63 70">
    <g fill-rule="evenodd">
        <path d="M47.881 66.41c0 .816-.665 1.48-1.483 1.48H15.602a1.483 1.483 0 0 1-1.483-1.48V58.8h29.925v-2.113l-29.925-.003V3.592c0-.816.665-1.48 1.483-1.48h30.796c.818 0 1.483.664 1.483 1.48v5.335l-29.792.004v2.113H47.88v5.421H50V3.592A3.6 3.6 0 0 0 46.398 0H15.602A3.6 3.6 0 0 0 12 3.592v62.816A3.6 3.6 0 0 0 15.602 70h30.796A3.6 3.6 0 0 0 50 66.408V55.452h-2.119V66.41z"/>
        <path d="M28 7h5V5h-5zm0 56.5c0 1.93 1.57 3.5 3.5 3.5s3.5-1.57 3.5-3.5-1.57-3.5-3.5-3.5-3.5 1.57-3.5 3.5zm4.857 0a1.36 1.36 0 0 1-1.357 1.356 1.36 1.36 0 0 1-1.356-1.356 1.357 1.357 0 0 1 2.713 0zM4 54h2v-3H4zm0 7h2v-3H4zm3-4h3v-2H7zm-7 0h3v-2H0zm57-45h2V9h-2zm0 7h2v-3h-2zm3-4h3v-2h-3zm-7 0h3v-2h-3zm-2.697 17.967a7.047 7.047 0 0 0-.274-.387v-7.616c1.525-.1 2.74-1.4 2.74-2.979 0-1.646-1.313-2.985-2.927-2.985h-6.769c-1.613 0-2.926 1.339-2.926 2.985 0 1.583 1.211 2.882 2.74 2.979v8.067l-7.162 10.728H17V54h39.987c1.741 0 3.04-.648 3.656-1.82.619-1.172.429-2.634-.534-4.114l-9.806-15.099zm-5.59 1.122l.265-.364V22.833H43.07a.841.841 0 0 1-.831-.848c0-.467.373-.848.831-.848h6.769a.84.84 0 0 1 .831.848.841.841 0 0 1-.831.848h-1.905l-.003 10.549.268.304c.121.14.242.29.357.46l4.088 6.295-12.169.003 4.238-6.355zM19.095 45.896H34.3l-1.277 1.913h-6.804v2.137h5.796c-.15.678-.117 1.326.108 1.914l-13.026.003v-5.967zm39.702 5.272c-.229.434-.906.695-1.813.695H35.896c-.903 0-1.574-.254-1.794-.678-.219-.424-.049-1.132.462-1.893l4.48-6.715h14.988l4.33 6.668c.501.771.665 1.49.436 1.923z"/>
        <path d="M29.5 41c2.481 0 4.5-2.019 4.5-4.5S31.981 32 29.5 32a4.505 4.505 0 0 0-4.5 4.5 4.501 4.501 0 0 0 4.5 4.5zm0-6.946a2.45 2.45 0 0 1 2.446 2.446 2.45 2.45 0 0 1-2.446 2.446 2.445 2.445 0 1 1 0-4.892zM40 27c0-2.205-1.795-4-4-4s-4 1.795-4 4 1.795 4 4 4 4-1.795 4-4zm-5.9 0c0-1.047.853-1.9 1.9-1.9s1.9.853 1.9 1.9-.853 1.9-1.9 1.9-1.9-.853-1.9-1.9zM30 22c1.654 0 3-1.348 3-3 0-1.656-1.346-3-3-3s-3 1.348-3 3 1.346 3 3 3zm0-3.95a.95.95 0 0 1 .949.947.948.948 0 0 1-1.898 0A.95.95 0 0 1 30 18.05zM22 50h3v-2h-3zm19-2h12v-2H41z"/>
    </g>
</symbol><symbol id="icon-home-outsourcing" viewBox="0 0 69 69">
    <path fill-rule="evenodd" d="M61.21 53.42a7.74 7.74 0 0 0-4.656 1.56l-10.29-10.29c2.369-2.739 3.817-6.295 3.817-10.19 0-3.895-1.448-7.451-3.822-10.186l10.29-10.29a7.788 7.788 0 0 0 4.66 1.557c4.296 0 7.791-3.496 7.791-7.79C69 3.494 65.505 0 61.21 0s-7.79 3.495-7.79 7.79a7.74 7.74 0 0 0 1.56 4.656l-10.29 10.29c-2.739-2.369-6.295-3.817-10.19-3.817-3.895 0-7.451 1.448-10.186 3.822l-10.29-10.29a7.788 7.788 0 0 0 1.557-4.66C15.58 3.494 12.085 0 7.79 0 3.494 0 0 3.495 0 7.79s3.495 7.79 7.79 7.79a7.74 7.74 0 0 0 4.656-1.56l10.29 10.29c-2.369 2.739-3.817 6.295-3.817 10.19 0 3.895 1.448 7.451 3.822 10.186l-10.29 10.29a7.788 7.788 0 0 0-4.66-1.557C3.494 53.42 0 56.915 0 61.21 0 65.506 3.495 69 7.79 69s7.79-3.495 7.79-7.79a7.74 7.74 0 0 0-1.56-4.656l10.29-10.29c2.739 2.369 6.295 3.817 10.19 3.817 3.895 0 7.451-1.448 10.186-3.822l10.29 10.29a7.788 7.788 0 0 0-1.557 4.66c0 4.296 3.496 7.791 7.79 7.791C65.506 69 69 65.505 69 61.21s-3.495-7.79-7.79-7.79zM61.5 2C64.534 2 67 4.466 67 7.5S64.534 13 61.5 13A5.505 5.505 0 0 1 56 7.5C56 4.466 58.466 2 61.5 2zM2 7.5C2 4.466 4.466 2 7.5 2S13 4.466 13 7.5 10.534 13 7.5 13A5.505 5.505 0 0 1 2 7.5zM34.5 21C41.944 21 48 27.082 48 34.559c0 3.668-1.463 6.996-3.828 9.441a10.097 10.097 0 0 0-5.585-6.316 6.787 6.787 0 0 0 2.663-5.385c0-3.738-3.028-6.78-6.75-6.78s-6.75 3.042-6.75 6.78a6.787 6.787 0 0 0 2.663 5.385A10.063 10.063 0 0 0 24.828 44 13.545 13.545 0 0 1 21 34.559C21 27.082 27.056 21 34.5 21zM30 32.5c0-2.483 2.017-4.5 4.5-4.5s4.5 2.017 4.5 4.5-2.017 4.5-4.5 4.5a4.503 4.503 0 0 1-4.5-4.5zM7.5 67A5.505 5.505 0 0 1 2 61.5C2 58.466 4.466 56 7.5 56s5.5 2.466 5.5 5.5S10.534 67 7.5 67zM27 45.53c.629-3.788 3.77-6.53 7.5-6.53 3.727 0 6.871 2.742 7.5 6.53-2.125 1.552-4.708 2.47-7.5 2.47s-5.375-.918-7.5-2.47zM61.5 67a5.505 5.505 0 0 1-5.5-5.5c0-3.034 2.466-5.5 5.5-5.5s5.5 2.466 5.5 5.5-2.466 5.5-5.5 5.5z"/>
</symbol><symbol id="icon-logo" viewBox="0 0 144 28">
    <g fill-rule="evenodd">
        <path fill="currentColor" d="M0 11.91V4h4.205v3.94H9.84v3.97H4.205v6.085c0 .983.212 1.7.636 2.153.425.453.987.68 1.688.68.847 0 1.825-.364 2.934-1.09L11 23.24C9.378 24.413 7.658 25 5.837 25c-1.925 0-3.38-.567-4.362-1.7C.492 22.164 0 20.513 0 18.346V11.91zM19 24V3h4.567v5.98c1.09-1.49 2.703-2.234 4.84-2.234 1.935 0 3.518.607 4.748 1.82C34.385 9.78 35 11.356 35 13.3V24h-4.567v-9.27c0-1.21-.29-2.14-.87-2.792-.578-.65-1.39-.976-2.435-.976-1.034 0-1.886.328-2.556.985-.67.656-1.005 1.595-1.005 2.818V24H19zM42.718 4.284C42.24 3.806 42 3.216 42 2.514c0-.7.24-1.296.718-1.783.48-.486 1.07-.73 1.775-.73.703 0 1.297.244 1.78.73S47 1.814 47 2.516c0 .7-.242 1.29-.726 1.77-.484.476-1.078.715-1.78.715-.705 0-1.297-.24-1.776-.716"/>
        <path fill="currentColor" d="M43 24h4V8h-4zm13 0V7.45h4.43v1.92C61.532 7.79 63.19 7 65.406 7c1.936 0 3.52.598 4.75 1.793C71.385 9.99 72 11.543 72 13.456V24h-4.567v-9.133c0-1.193-.29-2.11-.87-2.75s-1.39-.963-2.435-.963c-1.034 0-1.886.323-2.556.97-.67.647-1.005 1.572-1.005 2.777V24H56zm24 0V3h4.41v10.154h1.55l4.59-5.992h5.4l-6.436 7.927L96 24h-5.416l-4.69-6.806H84.41V24z"/>
        <path d="M103 12.502V3h4.557v9.118c0 1.27.31 2.207.933 2.814.622.607 1.458.91 2.51.91 1.04 0 1.874-.303 2.502-.91.627-.607.94-1.545.94-2.814V3H119v9.502c0 1.27-.217 2.394-.65 3.373-.432.98-1.024 1.762-1.776 2.347a8.133 8.133 0 0 1-2.536 1.327A9.91 9.91 0 0 1 111 20c-1.086 0-2.1-.15-3.043-.45a8.08 8.08 0 0 1-2.538-1.328c-.75-.585-1.34-1.367-1.773-2.347-.43-.98-.647-2.104-.647-3.373"/>
        <path fill="currentColor" d="M132.325 12.505c-.774.867-1.162 1.97-1.162 3.31s.388 2.446 1.162 3.318c.775.872 1.778 1.308 3.01 1.308 1.266 0 2.28-.44 3.044-1.324.763-.884 1.145-1.984 1.145-3.3 0-1.32-.382-2.416-1.146-3.294-.764-.878-1.78-1.317-3.044-1.317-1.233 0-2.236.433-3.01 1.3zM127 28V7.456h4.295v1.84c1.19-1.53 2.803-2.296 4.843-2.296 2.24 0 4.11.842 5.61 2.524 1.5 1.684 2.252 3.78 2.252 6.29 0 2.51-.75 4.61-2.25 6.3-1.5 1.688-3.366 2.532-5.596 2.532-1.985 0-3.572-.726-4.76-2.178V28H127z"/>
    </g>
</symbol></svg>