<svg xmlns="http://www.w3.org/2000/svg" width="101" height="20" viewBox="0 0 101 20">
    <path d="M0 8.508V2.857h2.95v2.814H6.9v2.837H2.95v4.345c0 .703.148 1.215.445 1.539.298.323.692.484 1.184.484.594 0 1.28-.259 2.058-.778L7.715 16.6c-1.137.838-2.344 1.257-3.62 1.257-1.35 0-2.37-.405-3.06-1.215S0 14.653 0 13.105V8.508zm13.326 8.635v-15h3.203v4.271c.765-1.064 1.896-1.596 3.394-1.596 1.358 0 2.469.434 3.332 1.3.862.868 1.294 1.994 1.294 3.381v7.644h-3.203v-6.621c0-.865-.203-1.53-.61-1.995-.406-.465-.976-.697-1.709-.697-.725 0-1.323.235-1.792.703-.47.47-.706 1.14-.706 2.013v6.597h-3.203zM29.962 3.06a1.73 1.73 0 0 1-.504-1.264c0-.501.168-.926.504-1.274A1.66 1.66 0 0 1 31.207 0c.493 0 .91.174 1.25.522.339.348.508.773.508 1.274s-.17.923-.509 1.264a1.7 1.7 0 0 1-1.25.511c-.493 0-.908-.17-1.244-.511m.198 14.083h2.805V5.714H30.16zm9.118 0V5.322h3.107v1.37C43.158 5.564 44.321 5 45.875 5c1.358 0 2.468.427 3.33 1.281.864.854 1.295 1.964 1.295 3.33v7.532h-3.203v-6.524c0-.852-.203-1.507-.61-1.965-.406-.458-.975-.687-1.708-.687-.726 0-1.323.231-1.793.693-.47.462-.705 1.123-.705 1.983v6.5h-3.203zm16.833 0v-15h3.094v7.253h1.086l3.22-4.28H67.3l-4.515 5.662 4.55 6.365h-3.8l-3.29-4.862h-1.039v4.862zM72.243 8.93V2.143h3.196v6.513c0 .906.218 1.576.654 2.01.437.433 1.024.65 1.761.65.73 0 1.315-.217 1.755-.65.44-.434.66-1.104.66-2.01V2.143h3.196V8.93c0 .907-.152 1.71-.455 2.41-.304.7-.719 1.258-1.246 1.675a5.67 5.67 0 0 1-1.78.949 6.835 6.835 0 0 1-2.13.322 6.868 6.868 0 0 1-2.134-.322 5.633 5.633 0 0 1-1.78-.949c-.526-.417-.94-.976-1.243-1.676-.303-.7-.454-1.502-.454-2.409m20.568.002c-.543.62-.815 1.407-.815 2.364 0 .957.272 1.747.815 2.37.544.624 1.248.935 2.112.935.888 0 1.6-.315 2.135-.947.535-.631.803-1.417.803-2.358 0-.94-.268-1.725-.803-2.352-.536-.627-1.247-.94-2.135-.94-.864 0-1.568.309-2.112.928zM89.076 20V5.326h3.013V6.64C92.923 5.547 94.055 5 95.486 5c1.57 0 2.883.601 3.935 1.803 1.053 1.202 1.579 2.7 1.579 4.493 0 1.793-.526 3.293-1.579 4.5-1.052 1.205-2.36 1.808-3.924 1.808-1.392 0-2.505-.518-3.34-1.556V20h-3.08z" fill="#B0B0B0" fill-rule="evenodd"/>
</svg>
