<?xml version="1.0" encoding="UTF-8" standalone="no"?>
<svg width="15px" height="11px" viewBox="0 0 15 11" version="1.1" xmlns="http://www.w3.org/2000/svg" xmlns:xlink="http://www.w3.org/1999/xlink">
    <!-- Generator: Sketch 47 (45396) - http://www.bohemiancoding.com/sketch -->
    <title>uruguay-flag</title>
    <desc>Created with Sketch.</desc>
    <defs>
        <rect id="path-1" x="0" y="0" width="15" height="11" rx="1.15199983"></rect>
        <rect id="path-3" x="0" y="0" width="15" height="11" rx="1.15199983"></rect>
    </defs>
    <g id="Page-1" stroke="none" stroke-width="1" fill="none" fill-rule="evenodd">
        <g id="uruguay-flag">
            <g id="Mask" fill-rule="nonzero" fill="#FFFFFF">
                <rect id="path-1" x="0" y="0" width="15" height="11" rx="1.15199983"></rect>
            </g>
            <g id="Combined-Shape-Clipped">
                <g id="path-1">
                    <mask id="mask-2" fill="white">
                        <use xlink:href="#path-1"></use>
                    </mask>
                    <g></g>
                    <path d="M-1,0 L15,0 L15,11 L-1,11 L-1,0 Z M6.61904762,0 L6.61904762,1.46666667 L15,1.46666667 L15,0 L6.61904762,0 Z M6.61904762,2.93333333 L6.61904762,4.4 L15,4.4 L15,2.93333333 L6.61904762,2.93333333 Z M6.61904762,5.86666667 L6.61904762,7.33333333 L15,7.33333333 L15,5.86666667 L6.61904762,5.86666667 Z M-1,8.8 L-1,10.2666667 L15,10.2666667 L15,8.8 L-1,8.8 Z M-1,0 L-1,7.33333333 L6.61904762,7.33333333 L6.61904762,0 L-1,0 Z" id="Combined-Shape" fill="#0E4DC5" fill-rule="nonzero" mask="url(#mask-2)"></path>
                </g>
            </g>
            <g id="Star-28-Clipped">
                <g id="path-1">
                    <mask id="mask-4" fill="white">
                        <use xlink:href="#path-3"></use>
                    </mask>
                    <g></g>
                    <path d="M3.28571429,5.12671607 L2.77709501,5.85747357 L2.64826181,4.98667774 L1.86059474,5.43266142 L2.13706461,4.59429905 L1.22635687,4.66717639 L1.85337157,4.02729543 L1,3.71263216 L1.85337157,3.39796889 L1.22635687,2.75808793 L2.13706461,2.83096527 L1.86059474,1.9926029 L2.64826181,2.43858659 L2.77709501,1.56779075 L3.28571429,2.29854826 L3.79433356,1.56779075 L3.92316677,2.43858659 L4.71083383,1.9926029 L4.43436396,2.83096527 L5.3450717,2.75808793 L4.71805701,3.39796889 L5.57142857,3.71263216 L4.71805701,4.02729543 L5.3450717,4.66717639 L4.43436396,4.59429905 L4.71083383,5.43266142 L3.92316677,4.98667774 L3.79433356,5.85747357 L3.28571429,5.12671607 Z M3.28571429,5.11263216 C4.08903756,5.11263216 4.74025974,4.48583081 4.74025974,3.71263216 C4.74025974,2.93943351 4.08903756,2.31263216 3.28571429,2.31263216 C2.48239101,2.31263216 1.83116883,2.93943351 1.83116883,3.71263216 C1.83116883,4.48583081 2.48239101,5.11263216 3.28571429,5.11263216 Z M3.28571429,4.76666667 C2.65453171,4.76666667 2.14285714,4.27417989 2.14285714,3.66666667 C2.14285714,3.05915344 2.65453171,2.56666667 3.28571429,2.56666667 C3.91689686,2.56666667 4.42857143,3.05915344 4.42857143,3.66666667 C4.42857143,4.27417989 3.91689686,4.76666667 3.28571429,4.76666667 Z" id="Star-28" fill="#FED443" fill-rule="nonzero" mask="url(#mask-4)"></path>
                </g>
            </g>
        </g>
    </g>
</svg>